
<?xml version="1.0" standalone="no"?>
<!DOCTYPE svg PUBLIC "-//W3C//DTD SVG 20010904//EN"
 "http://www.w3.org/TR/2001/REC-SVG-20010904/DTD/svg10.dtd">
<svg version="1.0" xmlns="http://www.w3.org/2000/svg"
 width="500.000000pt" height="500.000000pt" viewBox="0 0 500.000000 500.000000"
 preserveAspectRatio="xMidYMid meet">

<g transform="translate(0.000000,500.000000) scale(0.100000,-0.100000)"
fill="#000000" stroke="none">
<path d="M3382 3258 c-16 -16 -16 -90 0 -106 7 -7 30 -12 53 -12 52 0 65 13
65 67 0 32 -5 45 -19 53 -27 14 -84 13 -99 -2z"/>
<path d="M2290 2890 l0 -250 24 10 c14 5 48 21 75 35 l51 25 0 215 0 215 -75
0 -75 0 0 -250z"/>
<path d="M3047 3043 l-26 -58 40 -34 c59 -49 83 -103 83 -181 0 -74 -18 -119
-67 -170 -61 -63 -90 -70 -299 -70 l-187 0 -89 -45 c-50 -25 -121 -57 -159
-70 l-68 -25 365 3 365 2 65 31 c36 17 85 51 109 75 87 87 129 232 101 348
l-12 51 -43 0 c-28 0 -51 7 -69 21 -24 19 -26 27 -26 89 0 58 -3 71 -19 80
-31 16 -35 13 -64 -47z"/>
<path d="M2080 2789 l0 -201 38 6 c20 4 54 12 75 17 l37 10 0 184 0 185 -75 0
-75 0 0 -201z"/>
<path d="M3390 2075 c0 -28 -4 -35 -20 -35 -17 0 -20 -7 -20 -40 0 -33 3 -40
20 -40 18 0 20 -7 20 -69 0 -81 16 -108 70 -119 61 -13 80 -5 80 33 0 29 -4
34 -27 37 -27 3 -28 6 -31 61 l-3 57 31 0 c28 0 30 2 30 40 0 38 -2 40 -30 40
-28 0 -30 3 -30 35 0 35 0 35 -45 35 -45 0 -45 0 -45 -35z"/>
<path d="M1464 2003 c3 -21 6 -104 6 -185 l0 -148 45 0 45 0 0 61 c0 52 2 60
14 50 17 -14 61 -17 94 -7 34 11 52 56 52 131 0 99 -25 134 -94 135 -23 0 -47
-7 -58 -16 -16 -16 -18 -16 -24 0 -4 11 -18 16 -46 16 l-41 0 7 -37z m154 -45
c17 -17 15 -93 -3 -108 -8 -6 -23 -9 -35 -5 -16 5 -20 15 -20 55 0 36 5 52 18
59 22 13 26 13 40 -1z"/>
<path d="M1760 1905 l0 -135 45 0 45 0 0 84 c0 88 4 96 51 96 16 0 19 7 19 45
0 50 -16 58 -58 29 -20 -14 -22 -14 -22 0 0 12 -10 16 -40 16 l-40 0 0 -135z"/>
<path d="M2001 2024 c-66 -48 -67 -191 0 -238 15 -10 44 -16 82 -16 51 0 62 4
87 28 50 50 50 172 -1 217 -29 27 -135 33 -168 9z m93 -60 c38 -15 26 -124
-13 -124 -39 0 -57 83 -25 114 18 18 17 18 38 10z"/>
<path d="M2269 2011 c-17 -18 -29 -40 -29 -56 0 -32 41 -75 72 -75 39 0 68
-12 68 -26 0 -20 -29 -29 -43 -15 -17 17 -97 14 -97 -3 0 -68 155 -95 213 -38
23 23 26 87 4 109 -8 8 -38 20 -67 26 -56 13 -73 30 -43 41 11 4 22 1 29 -8 7
-10 27 -16 53 -16 35 0 41 3 41 20 0 12 -11 32 -25 45 -20 21 -34 25 -85 25
-55 0 -65 -3 -91 -29z"/>
<path d="M2514 1994 c3 -26 6 -109 6 -185 l0 -139 45 0 45 0 0 61 c0 52 2 60
14 50 17 -14 61 -17 94 -7 34 11 52 56 52 133 0 66 -13 104 -44 125 -20 14
-89 8 -108 -8 -16 -16 -18 -16 -24 0 -4 11 -18 16 -46 16 l-41 0 7 -46z m154
-36 c17 -17 15 -93 -3 -108 -8 -6 -23 -9 -35 -5 -16 5 -20 15 -20 55 0 36 5
52 18 59 22 13 26 13 40 -1z"/>
<path d="M2862 2027 c-76 -43 -82 -194 -9 -242 34 -22 130 -22 163 0 14 9 29
26 33 38 7 19 4 23 -18 28 -14 3 -45 -2 -69 -10 -42 -15 -44 -15 -58 4 -15 20
-13 20 72 23 l86 3 -6 51 c-4 28 -12 60 -17 70 -23 43 -126 63 -177 35z m82
-53 c30 -12 18 -34 -19 -34 -40 0 -41 2 -19 24 18 18 17 18 38 10z"/>
<path d="M3125 2018 c-49 -43 -55 -164 -11 -214 58 -68 206 -38 206 42 0 21
-5 24 -36 24 -19 0 -42 -7 -50 -15 -36 -36 -70 6 -58 71 8 41 33 52 56 25 11
-14 28 -21 52 -21 31 0 36 3 36 24 0 13 -3 32 -6 41 -18 47 -143 62 -189 23z"/>
</g>
</svg>
